# xmcd
#
# Track frame offsets:
# 150
# 13620
# 23397
# 35368
# 44937
# 56019
# 68745
# 81647
# 92795
# 103906
# 117797
# 128889
# 144163
# 155151
# 165578
#
# Disc length: 2359 seconds
#
#
# Revision: 0
# Processed by: cddbd v1.5.2PL0 Copyright (c) Steve Scherf et al.
# Submitted via: FreeRIP 2.96 
#
DISCID=cb09350f
DTITLE=porter wagoner - carroll county accident
DYEAR=2005
DGENRE=Country
TTITLE0=when lea jane would sing
TTITLE1=sorrow on the rocks
TTITLE2=devils alley
TTITLE3=baby linda
TTITLE4=angel band
TTITLE5=satisfied mind
TTITLE6=carroll county accident
TTITLE7=touching memories
TTITLE8=katy did
TTITLE9=skid row joe
TTITLE10=what would you do
TTITLE11=the cold hard facts of life
TTITLE12=freen green grass of home
TTITLE13=big wind
TTITLE14=misery loves company
EXTD=
EXTT0=
EXTT1=
EXTT2=
EXTT3=
EXTT4=
EXTT5=
EXTT6=
EXTT7=
EXTT8=
EXTT9=
EXTT10=
EXTT11=
EXTT12=
EXTT13=
EXTT14=
PLAYORDER=
